<?xml version="1.0" encoding="utf-8"?>
<!-- Generator: Adobe Illustrator 18.0.0, SVG Export Plug-In . SVG Version: 6.00 Build 0)  -->
<!DOCTYPE svg PUBLIC "-//W3C//DTD SVG 1.1//EN" "http://www.w3.org/Graphics/SVG/1.1/DTD/svg11.dtd">
<svg version="1.1" id="logoSvg" xmlns="http://www.w3.org/2000/svg" xmlns:xlink="http://www.w3.org/1999/xlink" x="0px" y="0px"
	 viewBox="0 0 400 400" enable-background="new 0 0 400 400" xml:space="preserve">
<circle id="background_x5F_circle" fill="#2C282D" cx="200" cy="200" r="189"/>
<g id="logo_x5F_s3">
	<path fill="#998C84" d="M203,333v-29c13-26.7,42.2-33.9,65-50c27.2-19,41-45,41-78l27-7.5c0,53.1-29,91.1-53,108
		C253.4,296.8,220,306.3,203,333z"/>
</g>
<g id="logo_x5F_s2">
	<polygon fill="#AD9A8C" points="336.1,168.6 199.9,206 200,179 336.2,141.6 	"/>
</g>
<g id="logo_x5F_s1">
	<path fill="#A8918B" d="M227,171.4l-27,7.6c0-53,28-84,52-101c29-20,63.9-30,84-52v29c-16,22-45,28-68,44c-28,20-41,39-41,72V171.4
		z"/>
</g>
<g id="logo_x5F_f1">
	<path fill="#A8918B" d="M106.9,205L80,212c0-71.9,38.2-121,71-144c40.8-28.6,88.9-40.7,116-68v29.2C240.9,56.5,200.3,66.7,167,90
		C139.5,109.3,106.9,145.1,106.9,205z"/>
</g>
<g id="logo_x5F_f3">
	<path fill="#998C84" d="M80,347c8,6,10.8,10.8,26,15.9V230l-26,8l0.4,109.6L80,347z"/>
</g>
<g id="logo_x5F_f2">
	<polygon fill="#AD9A8C" points="190,180 190,208 80,238 80,211 	"/>
</g>
</svg>
